<svg version="1.2" xmlns="http://www.w3.org/2000/svg" viewBox="0 0 512 512" width="512" height="512">
	<title>instagram-svg</title>
	<style>
		.s0 { fill: #000000 } 
	</style>
	<g id="Layer">
		<g id="Layer">
			<path id="Layer" fill-rule="evenodd" class="s0" d="m512 160v192c0 88.4-71.6 160-160 160h-192c-88.4 0-160-71.6-160-160v-192c0-88.4 71.6-160 160-160h192c88.4 0 160 71.6 160 160zm-48 0c0-61.8-50.2-112-112-112h-192c-61.8 0-112 50.2-112 112v192c0 61.8 50.2 112 112 112h192c61.8 0 112-50.2 112-112z"/>
		</g>
	</g>
	<g id="Layer">
		<g id="Layer">
			<path id="Layer" fill-rule="evenodd" class="s0" d="m384 256c0 70.7-57.3 128-128 128-70.7 0-128-57.3-128-128 0-70.7 57.3-128 128-128 70.7 0 128 57.3 128 128zm-48 0c0-44.1-35.9-80-80-80-44.1 0-80 35.9-80 80 0 44.1 35.9 80 80 80 44.1 0 80-35.9 80-80z"/>
		</g>
	</g>
	<g id="Layer">
		<g id="Layer">
			<path id="Layer" class="s0" d="m393.6 135.5c-9.4 0-17.1-7.7-17.1-17.1 0-9.4 7.7-17.1 17.1-17.1 9.4 0 17.1 7.7 17.1 17.1 0 9.4-7.7 17.1-17.1 17.1z"/>
		</g>
	</g>
	<g id="Layer">
	</g>
	<g id="Layer">
	</g>
	<g id="Layer">
	</g>
	<g id="Layer">
	</g>
	<g id="Layer">
	</g>
	<g id="Layer">
	</g>
	<g id="Layer">
	</g>
	<g id="Layer">
	</g>
	<g id="Layer">
	</g>
	<g id="Layer">
	</g>
	<g id="Layer">
	</g>
	<g id="Layer">
	</g>
	<g id="Layer">
	</g>
	<g id="Layer">
	</g>
	<g id="Layer">
	</g>
</svg>