<svg version="1.2" xmlns="http://www.w3.org/2000/svg" viewBox="0 0 480 480" width="480" height="480">
	<title>mail-svg</title>
	<style>
		.s0 { fill: #d26a22 }
	</style>
	<g id="Layer">
		<g id="Layer">
			<path id="Layer" fill-rule="evenodd" class="s0" d="m480 120v240c0 22.1-17.9 40-40 40h-400c-22.1 0-40-17.9-40-40v-240c0-22.1 17.9-40 40-40h400c22.1 0 40 17.9 40 40zm-16 0c0-13.3-10.7-24-24-24h-400c-13.3 0-24 10.7-24 24v240c0 13.3 10.7 24 24 24h400c13.3 0 24-10.7 24-24z"/>
		</g>
	</g>
	<g id="Layer">
		<g id="Layer">
			<path id="Layer" class="s0" d="m446.9 115.9c-2.3-3.8-7.2-5-11-2.8l-175.3 105.2c-12.7 7.6-28.5 7.6-41.2 0l-175.3-105.2c-3.8-2.2-8.7-0.8-10.9 3-2.2 3.7-1 8.5 2.7 10.8l175.3 105.1c17.7 10.7 39.9 10.7 57.6 0l175.3-105.1c3.8-2.3 5-7.2 2.8-11z"/>
		</g>
	</g>
	<g id="Layer">
		<g id="Layer">
			<path id="Layer" class="s0" d="m40 144c-4.4 0-8 3.6-8 8v208c0 4.4 3.6 8 8 8 4.4 0 8-3.6 8-8v-208c0-4.4-3.6-8-8-8z"/>
		</g>
	</g>
	<g id="Layer">
		<g id="Layer">
			<path id="Layer" class="s0" d="m440 144c-4.4 0-8 3.6-8 8v208c0 4.4 3.6 8 8 8 4.4 0 8-3.6 8-8v-208c0-4.4-3.6-8-8-8z"/>
		</g>
	</g>
	<g id="Layer">
	</g>
	<g id="Layer">
	</g>
	<g id="Layer">
	</g>
	<g id="Layer">
	</g>
	<g id="Layer">
	</g>
	<g id="Layer">
	</g>
	<g id="Layer">
	</g>
	<g id="Layer">
	</g>
	<g id="Layer">
	</g>
	<g id="Layer">
	</g>
	<g id="Layer">
	</g>
	<g id="Layer">
	</g>
	<g id="Layer">
	</g>
	<g id="Layer">
	</g>
	<g id="Layer">
	</g>
</svg>
