<svg version="1.2" xmlns="http://www.w3.org/2000/svg" viewBox="0 0 504 504" width="504" height="504">
	<title>mastercard-svg</title>
	<style>
		.s0 { fill: #ffb600 } 
		.s1 { fill: #f7981d } 
		.s2 { fill: #ff8500 } 
		.s3 { fill: #ff5050 } 
		.s4 { fill: #e52836 } 
		.s5 { fill: #cb2026 } 
		.s6 { fill: #ffffff } 
		.s7 { fill: #dce5e5 } 
	</style>
	<path id="Layer" class="s0" d="m504 252c0 83.2-67.2 151.2-151.2 151.2-83.2 0-151.2-68-151.2-151.2 0-83.2 67.2-151.2 150.4-151.2 84.8 0 152 68 152 151.2z"/>
	<path id="Layer" class="s1" d="m352.8 100.8c83.2 0 151.2 68 151.2 151.2 0 83.2-67.2 151.2-151.2 151.2-83.2 0-151.2-68-151.2-151.2"/>
	<path id="Layer" class="s2" d="m352.8 100.8c83.2 0 151.2 68 151.2 151.2 0 83.2-67.2 151.2-151.2 151.2"/>
	<path id="Layer" class="s3" d="m149.6 100.8c-82.4 0.8-149.6 68-149.6 151.2 0 83.2 67.2 151.2 151.2 151.2 39.2 0 74.4-15.2 101.6-39.2 5.6-4.8 10.4-10.4 15.2-16h-31.2c-4-4.8-8-10.4-11.2-15.2h53.6c3.2-4.8 6.4-10.4 8.8-16h-71.2c-2.4-4.8-4.8-10.4-6.4-16h83.2c4.8-15.2 8-31.2 8-48 0-11.2-1.6-21.6-3.2-32h-92.8c0.8-5.6 2.4-10.4 4-16h83.2c-1.6-5.6-4-11.2-6.4-16h-70.4c2.4-5.6 5.6-10.4 8.8-16h53.6c-3.2-5.6-7.2-11.2-12-16h-29.6c4.8-5.6 9.6-10.4 15.2-15.2-26.4-24.8-62.4-39.2-101.6-39.2 0-1.6 0-1.6-0.8-1.6z"/>
	<path id="Layer" class="s4" d="m0 252c0 83.2 67.2 151.2 151.2 151.2 39.2 0 74.4-15.2 101.6-39.2 5.6-4.8 10.4-10.4 15.2-16h-31.2c-4-4.8-8-10.4-11.2-15.2h53.6c3.2-4.8 6.4-10.4 8.8-16h-71.2c-2.4-4.8-4.8-10.4-6.4-16h83.2c4.8-15.2 8-31.2 8-48 0-11.2-1.6-21.6-3.2-32h-92.8c0.8-5.6 2.4-10.4 4-16h83.2c-1.6-5.6-4-11.2-6.4-16h-70.4c2.4-5.6 5.6-10.4 8.8-16h53.6c-3.2-5.6-7.2-11.2-12-16h-29.6c4.8-5.6 9.6-10.4 15.2-15.2-26.4-24.8-62.4-39.2-101.6-39.2h-0.8"/>
	<path id="Layer" class="s5" d="m151.2 403.2c39.2 0 74.4-15.2 101.6-39.2 5.6-4.8 10.4-10.4 15.2-16h-31.2c-4-4.8-8-10.4-11.2-15.2h53.6c3.2-4.8 6.4-10.4 8.8-16h-71.2c-2.4-4.8-4.8-10.4-6.4-16h83.2c4.8-15.2 8-31.2 8-48 0-11.2-1.6-21.6-3.2-32h-92.8c0.8-5.6 2.4-10.4 4-16h83.2c-1.6-5.6-4-11.2-6.4-16h-70.4c2.4-5.6 5.6-10.4 8.8-16h53.6c-3.2-5.6-7.2-11.2-12-16h-29.6c4.8-5.6 9.6-10.4 15.2-15.2-26.4-24.8-62.4-39.2-101.6-39.2h-0.8"/>
	<g id="Layer">
		<path id="Layer" class="s6" d="m204.8 290.4l2.4-13.6c-0.8 0-2.4 0.8-4 0.8-5.6 0-6.4-3.2-5.6-4.8l4.8-28h8.8l2.4-15.2h-8l1.6-9.6h-16c0 0-9.6 52.8-9.6 59.2 0 9.6 5.6 13.6 12.8 13.6 4.8 0 8.8-1.6 10.4-2.4z"/>
		<path id="Layer" fill-rule="evenodd" class="s6" d="m239.2 228.8c17.6 0 23.2 12.8 23.2 23.2 0 4-2.4 14.4-2.4 14.4h-32.8c0 0-3.2 12.8 14.4 12.8 8 0 16.8-4 16.8-4l-3.2 15.2c0 0-4.8 2.4-16.8 2.4-12.8 0-28-5.6-28-28 0-20 12-37.6 28.8-36zm-11.2 24h17.6c0-0.8 1.6-11.2-7.2-11.2-8.8 0-10.4 10.4-10.4 11.2z"/>
		<path id="Layer" class="s6" d="m340 290.4l3.2-17.6c0 0-8 4-13.6 4-11.2 0-16-8.8-16-18.4 0-19.2 9.6-29.6 20.8-29.6 8 0 14.4 4.8 14.4 4.8l2.4-16.8c0 0-9.6-4-18.4-4-18.4 0-36.8 16-36.8 46.4 0 20 9.6 33.6 28.8 33.6 6.4 0 15.2-2.4 15.2-2.4z"/>
		<path id="Layer" fill-rule="evenodd" class="s6" d="m138.4 247.2l-6.4 44h-14.4l0.8-6.4c-0.8 0-5.6 7.2-16.8 7.2-5.6 0-15.2-3.2-15.2-17.6 0-18.4 15.2-24 28.8-24 2.4 0 7.2 0 7.2 0 0 0 0.8-0.8 0.8-4 0-4.8-4.8-5.6-10.4-5.6-10.4 0-17.6 3.2-17.6 3.2l2.4-13.6c0 0 8-3.2 19.2-3.2 5.6 0 21.6 0.8 21.6 20zm-21.6 15.2c-12 0-14.4 5.6-14.4 9.6 0 2.4 1.6 6.4 6.4 6.4 9.6 0 11.2-12.8 11.2-15.2 0 0-0.8 0-3.2-0.8z"/>
		<path id="Layer" class="s6" d="m153.6 292c4 0 24 0.8 24-20.8 0-20-19.2-16-19.2-24 0-4 3.2-5.6 8.8-5.6 2.4 0 11.2 0.8 11.2 0.8l2.4-14.4c0 0-5.6-1.6-15.2-1.6-12 0-24 4.8-24 20.8 0 18.4 20 16.8 20 24 0 4.8-5.6 5.6-9.6 5.6-7.2 0-14.4-2.4-14.4-2.4l-2.4 14.4c0.8 1.6 4.8 3.2 18.4 3.2z"/>
		<path id="Layer" fill-rule="evenodd" class="s6" d="m489.6 215.2l-12 76.8h-16l0.8-5.6c0 0-5.6 6.4-15.2 6.4-13.6 0-20-13.6-20-26.4 0-20.8 12.8-38.4 27.2-38.4 8.8 0 15.2 8 15.2 8l3.2-21.6zm-32.8 28c-7.2 0-12.8 8-12.8 20.8 0 8 3.2 12.8 8.8 12.8 8.8 0 12.8-11.2 12.8-20 0-9.6-3.2-13.6-8.8-13.6z"/>
		<path id="Layer" class="s6" d="m29.6 291.2l9.6-57.6 1.6 57.6h11.2l20.8-57.6-8.8 57.6h16.8l12.8-76.8h-26.4l-16 47.2-0.8-47.2h-23.2l-12.8 76.8z"/>
		<path id="Layer" class="s6" d="m277.6 291.2c4.8-26.4 5.6-48 16.8-44 1.6-10.4 4-14.4 5.6-18.4 0 0-0.8 0-3.2 0-7.2 0-12.8 9.6-12.8 9.6l1.6-8.8h-15.2l-10.4 62.4h17.6z"/>
		<path id="Layer" fill-rule="evenodd" class="s6" d="m398.4 247.2l-6.4 44h-14.4l0.8-6.4c-0.8 0-5.6 7.2-16.8 7.2-5.6 0-15.2-3.2-15.2-17.6 0-18.4 15.2-24 28.8-24 2.4 0 7.2 0 7.2 0 0 0 0.8-0.8 0.8-4 0-4.8-4.8-5.6-10.4-5.6-10.4 0-17.6 3.2-17.6 3.2l2.4-13.6c0 0 8-3.2 19.2-3.2 5.6 0 22.4 0.8 21.6 20zm-20.8 15.2c-12 0-14.4 5.6-14.4 9.6 0 2.4 1.6 6.4 6.4 6.4 9.6 0 11.2-12.8 11.2-15.2-0.8 0-0.8 0-3.2-0.8z"/>
		<path id="Layer" class="s6" d="m412 291.2c4.8-26.4 5.6-48 16.8-44 1.6-10.4 4-14.4 5.6-18.4 0 0-0.8 0-3.2 0-7.2 0-12.8 9.6-12.8 9.6l1.6-8.8h-15.2l-10.4 62.4h17.6z"/>
	</g>
	<g id="Layer">
		<path id="Layer" class="s7" d="m180 279.2c0 9.6 5.6 13.6 12.8 13.6 5.6 0 10.4-1.6 12-2.4l2.4-13.6c-0.8 0-2.4 0.8-4 0.8-5.6 0-6.4-3.2-5.6-4.8l4.8-28h8.8l2.4-15.2h-8l1.6-9.6"/>
		<path id="Layer" fill-rule="evenodd" class="s7" d="m239.2 228.8c17.6 0 23.2 12.8 23.2 23.2 0 4-2.4 14.4-2.4 14.4h-32.8c0 0-3.2 12.8 14.4 12.8 8 0 16.8-4 16.8-4l-3.2 15.2c0 0-4.8 2.4-16.8 2.4-12.8 0-20-5.6-20-28 0-20 4-37.6 20.8-36zm-11.2 24h20.8c0-0.8-1.6-11.2-10.4-11.2-8.8 0-10.4 10.4-10.4 11.2z"/>
		<path id="Layer" class="s7" d="m340 290.4l3.2-17.6c0 0-8 4-13.6 4-11.2 0-16-8.8-16-18.4 0-19.2 9.6-29.6 20.8-29.6 8 0 14.4 4.8 14.4 4.8l2.4-16.8c0 0-9.6-4-18.4-4-18.4 0-28.8 16-28.8 46.4 0 20 1.6 33.6 20.8 33.6 6.4 0 15.2-2.4 15.2-2.4z"/>
		<path id="Layer" fill-rule="evenodd" class="s7" d="m116 228.8c6.4 0 22.4 0.8 22.4 19.2l-6.4 44h-14.4l0.8-6.4c-0.8 0-5.6 7.2-16.8 7.2-5.6 0-15.2-3.2-15.2-17.6 0-18.4 15.2-24 28.8-24 2.4 0 7.2 0 7.2 0 0 0 0.8-0.8 0.8-4 0-4.8-4.8-5.6-10.4-5.6-10.4 0-17.6 3.2-17.6 3.2m21.6 17.6c-12 0-14.4 5.6-14.4 9.6 0 2.4 1.6 6.4 6.4 6.4 9.6 0 19.2-12.8 19.2-15.2 0 0-8.8 0-11.2-0.8z"/>
		<path id="Layer" class="s7" d="m136 290.4c0 0 4.8 1.6 18.4 1.6 4 0 24 0.8 24-20.8 0-20-19.2-16-19.2-24 0-4 3.2-5.6 8.8-5.6 2.4 0 11.2 0.8 11.2 0.8l2.4-14.4c0 0-5.6-1.6-15.2-1.6-12 0-16 4.8-16 20.8 0 18.4 12 16.8 12 24 0 4.8-5.6 5.6-9.6 5.6"/>
		<path id="Layer" fill-rule="evenodd" class="s7" d="m489.6 215.2l-12 76.8h-16l0.8-5.6c0 0-5.6 6.4-15.2 6.4-13.6 0-12-13.6-12-26.4 0-20.8 4.8-38.4 19.2-38.4 8.8 0 15.2 8 15.2 8m-12.8 7.2c-7.2 0-12.8 8-12.8 20.8 0 8 3.2 12.8 8.8 12.8 8.8 0 16-11.2 16-20 0-9.6-6.4-13.6-12-13.6z"/>
		<path id="Layer" class="s7" d="m29.6 291.2l9.6-57.6 1.6 57.6h11.2l20.8-57.6-8.8 57.6h16.8l12.8-76.8h-20l-22.4 47.2-0.8-47.2h-8.8l-27.2 76.8z"/>
		<path id="Layer" class="s7" d="m260.8 291.2h16.8c4.8-26.4 5.6-48 16.8-44 1.6-10.4 4-14.4 5.6-18.4 0 0-0.8 0-3.2 0-7.2 0-12.8 9.6-12.8 9.6l1.6-8.8"/>
		<path id="Layer" fill-rule="evenodd" class="s7" d="m376 228.8c6.4 0 22.4 0.8 22.4 19.2l-6.4 44h-14.4l0.8-6.4c-0.8 0-5.6 7.2-16.8 7.2-5.6 0-15.2-3.2-15.2-17.6 0-18.4 15.2-24 28.8-24 2.4 0 7.2 0 7.2 0 0 0 0.8-0.8 0.8-4 0-4.8-4.8-5.6-10.4-5.6-10.4 0-17.6 3.2-17.6 3.2m21.6 17.6c-12 0-14.4 5.6-14.4 9.6 0 2.4 1.6 6.4 6.4 6.4 9.6 0 19.2-12.8 19.2-15.2 0 0-8 0-11.2-0.8z"/>
		<path id="Layer" class="s7" d="m395.2 291.2h16.8c4.8-26.4 5.6-48 16.8-44 1.6-10.4 4-14.4 5.6-18.4 0 0-0.8 0-3.2 0-7.2 0-12.8 9.6-12.8 9.6l1.6-8.8"/>
	</g>
	<g id="Layer">
	</g>
	<g id="Layer">
	</g>
	<g id="Layer">
	</g>
	<g id="Layer">
	</g>
	<g id="Layer">
	</g>
	<g id="Layer">
	</g>
	<g id="Layer">
	</g>
	<g id="Layer">
	</g>
	<g id="Layer">
	</g>
	<g id="Layer">
	</g>
	<g id="Layer">
	</g>
	<g id="Layer">
	</g>
	<g id="Layer">
	</g>
	<g id="Layer">
	</g>
	<g id="Layer">
	</g>
</svg>