<svg version="1.2" xmlns="http://www.w3.org/2000/svg" viewBox="0 0 489 489" width="489" height="489">
	<title>paypal-svg</title>
	<style>
		.s0 { fill: #32a6ce } 
		.s1 { fill: #1a80ad } 
		.s2 { fill: #21789e } 
		.s3 { fill: #1a5b80 } 
		.s4 { fill: #06435e } 
		.s5 { fill: #2273aa } 
	</style>
	<path id="Layer" fill-rule="evenodd" class="s0" d="m414.4 228.4l-11.2 52h-25.6l1.6-8.8c-13.6 14.4-48.8 13.6-43.2-18.4 4-19.2 23.2-24.8 52-24.8 1.6-8.8-4-10.4-13.6-10.4-9.6 0.8-20.8 4-24.8 5.6l2.4-18.4c8-1.6 17.6-4.8 29.6-4.8 17.6-0.8 36.8 6.4 32.8 28zm-30.1 20.8c-2.2 0-4.4 0-5.9 0-5.6 0-12.8 0-16 4.8-3.2 6.4 1.6 9.6 7.2 9.6 6.4-0.8 12-3.2 13.6-9.6 0-1.9 0.5-4.2 1.1-4.8zm0.5 0q-0.3-0.3-0.5 0 0.2 0 0.5 0z"/>
	<path id="Layer" fill-rule="evenodd" class="s1" d="m381.6 201.2c17.6 0 37.6 5.6 32.8 27.2l-11.2 52h-25.6l1.6-8.8c-13.6 14.4-48.8 13.6-43.2-18.4 4-19.2 23.2-24.8 52-24.8 1.6-8.8-4-10.4-13.6-10.4-9.6 0.8-20.8 4-24.8 5.6m34.7 25.6c-2.2 0-4.4 0-5.9 0-5.6 0-12.8 0-16 4.8-3.2 6.4 1.6 9.6 7.2 9.6 6.4-0.8 12-3.2 13.6-9.6 0-1.9 0.5-4.2 1.1-4.8zm0.5 0q-0.3-0.3-0.5 0 0.2 0 0.5 0z"/>
	<path id="Layer" class="s0" d="m436 176.4l-20.8 104h25.6l21.6-104z"/>
	<path id="Layer" class="s1" d="m454.4 176.4l-39.2 104h25.6l21.6-104h-26.4z"/>
	<path id="Layer" fill-rule="evenodd" class="s0" d="m343.2 217.2c-4 20-20 31.2-39.2 31.2h-20l-7.2 32h-28l20.8-104h47.2c13.6 0 30.4 17.6 26.4 40.8zm-36.8-16.8h-13.6l-5.6 24h12.8c7.2 0 14.4-4.8 16-12 1.6-7.2-2.4-12-9.6-12z"/>
	<path id="Layer" fill-rule="evenodd" class="s1" d="m342.4 217.2c-4 20-20 31.2-39.2 31.2h-20l-7.2 32h-28l36.8-104h32c13.6 0 30.4 17.6 25.6 40.8zm-36-16.8h-13.6l-5.6 24h12.8c7.2 0 14.4-4.8 16-12 1.6-7.2-2.4-12-9.6-12z"/>
	<path id="Layer" fill-rule="evenodd" class="s2" d="m165.6 228.4l-11.2 52h-25.6l1.6-8.8c-13.6 14.4-48 13.6-42.4-18.4 4-19.2 23.2-24.8 51.2-24.8 1.6-8.8-4-10.4-13.6-10.4-9.6 0.8-21.6 4-24.8 5.6l2.4-18.4c7.2-1.6 16.8-4.8 28.8-4.8 17.6-0.8 37.6 6.4 33.6 28zm-30.1 20.8c-2.1 0-3.7 0-5.9 0-4.8 0-12 0-15.2 4.8-4 6.4 0.8 9.6 6.4 9.6 6.4-0.8 12-3.2 13.6-9.6 0-1.9 0.5-4.2 1.1-4.8zm0.5 0q-0.3-0.3-0.5 0 0.2 0 0.5 0z"/>
	<path id="Layer" fill-rule="evenodd" class="s3" d="m132.8 201.2c17.6 0 37.6 5.6 32.8 27.2l-11.2 52h-25.6l2.4-8.8c-13.6 14.4-48 13.6-42.4-18.4 4-19.2 23.2-24.8 51.2-24.8 1.6-8.8-4-10.4-13.6-10.4-9.6 0.8-21.6 4-24.8 5.6m33.9 25.6c-2.1 0-3.7 0-5.9 0-4.8 0-12 0-15.2 4.8-4 6.4 0.8 9.6 6.4 9.6 6.4-0.8 12-3.2 13.6-9.6 0-1.9 0.5-4.2 1.1-4.8zm0.5 0q-0.3-0.3-0.5 0 0.2 0 0.5 0z"/>
	<path id="Layer" class="s2" d="m176 200.4h25.6l4 44.8 25.6-44.8h26.4l-60.8 112h-28.8l18.4-33.6z"/>
	<path id="Layer" class="s3" d="m201.6 202l4 44 25.6-45.6h26.4l-60.8 112h-28.8l18.4-32.8"/>
	<path id="Layer" fill-rule="evenodd" class="s2" d="m94.4 217.2c-4 20-20 31.2-39.2 31.2h-20l-7.2 32h-28l20.8-104h48c13.6 0 30.4 17.6 25.6 40.8zm-36-16.8h-13.6l-5.6 24h12.8c7.2 0 14.4-4.8 16-12 1.6-7.2-2.4-12-9.6-12z"/>
	<path id="Layer" fill-rule="evenodd" class="s3" d="m94.4 217.2c-4 20-20 31.2-39.2 31.2h-20l-7.2 32h-28l47.2-104h21.6c13.6 0 30.4 17.6 25.6 40.8zm-36-16.8h-13.6l-5.6 24h12.8c7.2 0 14.4-4.8 16-12 1.6-7.2-2.4-12-9.6-12z"/>
	<g id="Layer">
		<path id="Layer" fill-rule="evenodd" class="s4" d="m158.4 261.2l-4 19.2h-25.6l1.6-9.6c-13.6 14.4-48 13.6-42.4-18.4 3.2-16 17.6-22.4 39.2-24zm-22.9-12c-2.1 0-3.7 0-5.9 0-4.8 0-12 0-15.2 4.8-4 6.4 0.8 9.6 6.4 9.6 6.4-0.8 12-3.2 13.6-9.6 0-1.9 0.5-4.2 1.1-4.8zm0.5 0q-0.3-0.3-0.5 0 0.2 0 0.5 0z"/>
		<path id="Layer" class="s4" d="m207.2 244.4l-1.6 2.4 16.8 16 35.2-62.4h-26.4z"/>
		<path id="Layer" class="s4" d="m28 280.4l7.2-32-32.8 32z"/>
	</g>
	<g id="Layer">
		<path id="Layer" class="s5" d="m276 280.4l7.2-33.6v0.8l-32.8 32.8z"/>
		<path id="Layer" fill-rule="evenodd" class="s5" d="m407.2 261.2l-4 19.2h-25.6l2.4-9.6c-13.6 14.4-48.8 13.6-43.2-18.4 3.2-16 17.6-22.4 39.2-24zm-22.9-12c-2.2 0-4.4 0-5.9 0-5.6 0-12.8 0-16 4.8-3.2 6.4 1.6 9.6 7.2 9.6 6.4-0.8 12-3.2 13.6-9.6 0-1.9 0.5-4.2 1.1-4.8zm0.5 0q-0.3-0.3-0.5 0 0.2 0 0.5 0z"/>
		<path id="Layer" class="s5" d="m433.6 233.2l-18.4 47.2h25.6l7.2-32z"/>
	</g>
	<g id="Layer">
		<path id="Layer" class="s0" d="m468 193.2v-11.2h-4v-1.6h10.4v1.6h-4v11.2z"/>
		<path id="Layer" class="s0" d="m476 193.2v-12.8h2.4l3.2 8.8c0 0.8 0.8 1.6 0.8 1.6 0-0.8 0-0.8 0.8-2.4l3.2-8.8h2.4v12.8h-1.6v-11.2l-4 11.2h-2.4l-4-11.2v11.2h-0.8z"/>
	</g>
	<g id="Layer">
	</g>
	<g id="Layer">
	</g>
	<g id="Layer">
	</g>
	<g id="Layer">
	</g>
	<g id="Layer">
	</g>
	<g id="Layer">
	</g>
	<g id="Layer">
	</g>
	<g id="Layer">
	</g>
	<g id="Layer">
	</g>
	<g id="Layer">
	</g>
	<g id="Layer">
	</g>
	<g id="Layer">
	</g>
	<g id="Layer">
	</g>
	<g id="Layer">
	</g>
	<g id="Layer">
	</g>
</svg>