<svg version="1.2" xmlns="http://www.w3.org/2000/svg" viewBox="0 0 512 512" width="512" height="512">
	<title>phone-svg</title>
	<style>
		.s0 { fill: #d26a22 }
	</style>
	<g id="Layer">
		<path id="Layer" fill-rule="evenodd" class="s0" d="m512 165.6v45c0 4.2-3.4 7.5-7.5 7.5h-111.2c1.5 4.1 4.1 7.8 7.7 10.5l30 22.5c13.1 9.9 21 25.6 21 42v143.3c0 20.7-16.8 37.5-37.5 37.5h-317c-20.7 0-37.5-16.8-37.5-37.5v-143.3c0-16.4 7.9-32.1 21-42l30-22.5c3.6-2.7 6.2-6.4 7.7-10.5h-111.2c-4.1 0-7.5-3.3-7.5-7.5v-45c0-70.3 57.2-127.5 127.5-127.5h257c70.3 0 127.5 57.2 127.5 127.5zm-496.7-7.5h104.7v-7.5c0-18.1 12.9-33.2 30-36.7v-23.3c0-12.4 10.1-22.5 22.5-22.5 9.8 0 18.1 6.3 21.2 15h124.6c3.1-8.7 11.4-15 21.2-15 12.4 0 22.5 10.1 22.5 22.5v23.3c17.1 3.5 30 18.6 30 36.7v7.5h104.7c-3.8-58.5-52.7-105-112.2-105h-257c-59.5 0-108.4 46.5-112.2 105zm376.7 82.5c-9.4-7-15-18.2-15-30v-60c0-12.4-10.1-22.5-22.5-22.5-4.1 0-7.5-3.3-7.5-7.5v-30c0-4.1-3.4-7.5-7.5-7.5-4.1 0-7.5 3.4-7.5 7.5v30c0 4.2-3.4 7.5-7.5 7.5h-137c-4.1 0-7.5-3.3-7.5-7.5v-30c0-4.1-3.4-7.5-7.5-7.5-4.1 0-7.5 3.4-7.5 7.5v30c0 4.2-3.4 7.5-7.5 7.5-12.4 0-22.5 10.1-22.5 22.5v60c0 11.8-5.6 23-15 30l-30 22.5c-9.4 7.1-15 18.3-15 30v68.3c0 12.4 10.1 22.5 22.5 22.5 4.1 0 7.5 3.3 7.5 7.5 0 4.1-3.4 7.5-7.5 7.5-8.4 0-16.2-2.8-22.5-7.5v45c0 12.4 10.1 22.5 22.5 22.5h317c12.4 0 22.5-10.1 22.5-22.5v-45c-6.3 4.7-14.1 7.5-22.5 7.5h-287c-4.1 0-7.5-3.4-7.5-7.5 0-4.2 3.4-7.5 7.5-7.5h287c12.4 0 22.5-10.1 22.5-22.5v-68.3c0-11.7-5.6-22.9-15-30zm-377-37.5h105v-30h-105zm180-90h122v-15h-122zm302 90v-30h-105v30z"/>
		<path id="Layer" fill-rule="evenodd" class="s0" d="m368.5 255.6c0 62-50.5 112.5-112.5 112.5-62 0-112.5-50.5-112.5-112.5 0-62 50.5-112.5 112.5-112.5 62 0 112.5 50.5 112.5 112.5zm-15 0c0-53.7-43.7-97.5-97.5-97.5-53.8 0-97.5 43.8-97.5 97.5 0 53.8 43.7 97.5 97.5 97.5 53.8 0 97.5-43.7 97.5-97.5z"/>
		<path id="Layer" fill-rule="evenodd" class="s0" d="m308.5 255.6c0 29-23.6 52.5-52.5 52.5-28.9 0-52.5-23.5-52.5-52.5 0-28.9 23.6-52.5 52.5-52.5 28.9 0 52.5 23.6 52.5 52.5zm-15 0c0-20.7-16.8-37.5-37.5-37.5-20.7 0-37.5 16.8-37.5 37.5 0 20.7 16.8 37.5 37.5 37.5 20.7 0 37.5-16.8 37.5-37.5z"/>
		<path id="Layer" fill-rule="evenodd" class="s0" d="m338.5 255.6c0 45.5-37 82.5-82.5 82.5-45.5 0-82.5-37-82.5-82.5 0-45.5 37-82.5 82.5-82.5 45.5 0 82.5 37 82.5 82.5zm-15 0c0-37.2-30.3-67.5-67.5-67.5-37.2 0-67.5 30.3-67.5 67.5 0 37.2 30.3 67.5 67.5 67.5 37.2 0 67.5-30.3 67.5-67.5z"/>
	</g>
</svg>
