<svg version="1.2" xmlns="http://www.w3.org/2000/svg" viewBox="0 0 504 504" width="504" height="504">
	<title>visa-svg</title>
	<style>
		.s0 { fill: #3c58bf } 
		.s1 { fill: #293688 } 
		.s2 { fill: #ffbc00 } 
		.s3 { fill: #f7981d } 
		.s4 { fill: #ed7c00 } 
		.s5 { fill: #051244 } 
	</style>
	<path id="Layer" class="s0" d="m184.8 324.4l25.6-144h40l-24.8 144z"/>
	<path id="Layer" class="s1" d="m184.8 324.4l32.8-144h32.8l-24.8 144z"/>
	<path id="Layer" class="s0" d="m370.4 182c-8-3.2-20.8-6.4-36.8-6.4-40 0-68.8 20-68.8 48.8 0 21.6 20 32.8 36 40 16 7.2 20.8 12 20.8 18.4 0 9.6-12.8 14.4-24 14.4-16 0-24.8-2.4-38.4-8l-5.6-2.4-5.6 32.8c9.6 4 27.2 8 45.6 8 42.4 0 70.4-20 70.4-50.4 0-16.8-10.4-29.6-34.4-40-14.4-7.2-23.2-11.2-23.2-18.4 0-6.4 7.2-12.8 23.2-12.8 13.6 0 23.2 2.4 30.4 5.6l4 1.6z"/>
	<path id="Layer" class="s1" d="m370.4 182c-8-3.2-20.8-6.4-36.8-6.4-40 0-61.6 20-61.6 48.8 0 21.6 12.8 32.8 28.8 40 16 7.2 20.8 12 20.8 18.4 0 9.6-12.8 14.4-24 14.4-16 0-24.8-2.4-38.4-8l-5.6-2.4-5.6 32.8c9.6 4 27.2 8 45.6 8 42.4 0 70.4-20 70.4-50.4 0-16.8-10.4-29.6-34.4-40-14.4-7.2-23.2-11.2-23.2-18.4 0-6.4 7.2-12.8 23.2-12.8 13.6 0 23.2 2.4 30.4 5.6l4 1.6z"/>
	<path id="Layer" fill-rule="evenodd" class="s0" d="m470.4 180.4l33.6 144h-38.4l-4.8-24h-51.2l-8 24h-43.2l60-133.6c4-9.6 11.2-10.4 20.8-10.4zm-49.6 96.8h33.6c-1.6-8-9.6-44-9.6-44l-2.4-13.6c-2.4 5.6-5.6 14.4-5.6 14.4 0 0-13.6 35.2-16 42.4z"/>
	<path id="Layer" fill-rule="evenodd" class="s1" d="m470.4 180.4l33.6 144h-38.4l-4.8-24h-51.2l-8 24h-43.2l69.6-133.6c4-9.6 11.2-10.4 20.8-10.4zm-49.6 96.8h33.6c-1.6-8-9.6-44-9.6-44l-2.4-13.6c-2.4 5.6-5.6 14.4-5.6 14.4 0 0-12.8 34.4-16 42.4z"/>
	<path id="Layer" class="s0" d="m111.2 281.2l-4-20.8c-7.2-24-30.4-50.4-56-63.2l36 128h43.2l64.8-144h-43.2z"/>
	<path id="Layer" class="s1" d="m111.2 281.2l-4-20.8c-7.2-24-30.4-50.4-56-63.2l36 128h43.2l64.8-144h-35.2z"/>
	<path id="Layer" class="s2" d="m0 180.4l7.2 1.6c51.2 12 86.4 42.4 100 78.4l-14.4-68c-2.4-9.6-9.6-12-18.4-12z"/>
	<path id="Layer" class="s3" d="m0 180.4c51.2 12 93.6 43.2 107.2 79.2l-13.6-56.8c-2.4-9.6-10.4-15.2-19.2-15.2z"/>
	<path id="Layer" class="s4" d="m0 180.4c51.2 12 93.6 43.2 107.2 79.2l-9.6-31.2c-2.4-9.6-5.6-19.2-16.8-23.2z"/>
	<g id="Layer">
		<path id="Layer" class="s5" d="m151.2 276.4l-27.2-27.2-12.8 30.4-3.2-20c-7.2-24-30.4-50.4-56-63.2l36 128h43.2z"/>
		<path id="Layer" class="s5" d="m225.6 324.4l-34.4-35.2-6.4 35.2z"/>
		<path id="Layer" class="s5" d="m317.6 274.8c3.2 3.2 4.8 5.6 4 8.8 0 9.6-12.8 14.4-24 14.4-16 0-24.8-2.4-38.4-8l-5.6-2.4-5.6 32.8c9.6 4 27.2 8 45.6 8 25.6 0 46.4-7.2 58.4-20z"/>
		<path id="Layer" class="s5" d="m364 324.4h37.6l8-24h51.2l4.8 24h38.4l-13.6-58.4-48-46.4 2.4 12.8c0 0 8 36 9.6 44h-33.6c3.2-8 16-42.4 16-42.4 0 0 3.2-8.8 5.6-14.4"/>
	</g>
	<g id="Layer">
	</g>
	<g id="Layer">
	</g>
	<g id="Layer">
	</g>
	<g id="Layer">
	</g>
	<g id="Layer">
	</g>
	<g id="Layer">
	</g>
	<g id="Layer">
	</g>
	<g id="Layer">
	</g>
	<g id="Layer">
	</g>
	<g id="Layer">
	</g>
	<g id="Layer">
	</g>
	<g id="Layer">
	</g>
	<g id="Layer">
	</g>
	<g id="Layer">
	</g>
	<g id="Layer">
	</g>
</svg>