<svg version="1.2" xmlns="http://www.w3.org/2000/svg" viewBox="0 0 512 512" width="512" height="512">
	<title>vk-svg</title>
	<style>
		.s0 { fill: #000000 } 
	</style>
	<g id="Layer">
		<g id="Layer">
			<path id="Layer" class="s0" d="m507.4 370.5c-1.4-2.3-9.9-20.8-50.8-58.8-42.9-39.9-37.2-33.4 14.5-102.2 31.4-41.9 44-67.5 40.1-78.5-3.8-10.4-26.9-7.7-26.9-7.7l-76.9 0.5c0 0-5.7-0.8-10 1.7-4.1 2.5-6.8 8.3-6.8 8.3 0 0-12.2 32.4-28.4 60-34.3 58.2-48 61.3-53.6 57.7-13-8.4-9.8-33.9-9.8-51.9 0-56.4 8.6-79.9-16.6-86-8.4-2-14.6-3.4-36-3.6-27.4-0.3-50.7 0.1-63.9 6.5-8.7 4.3-15.5 13.9-11.3 14.4 5 0.7 16.6 3.1 22.7 11.4 7.9 10.8 7.6 34.9 7.6 34.9 0 0 4.5 66.4-10.6 74.6-10.4 5.7-24.6-5.8-55.2-58.7-15.7-27-27.5-56.9-27.5-56.9 0 0-2.3-5.6-6.3-8.6-5-3.6-11.9-4.7-11.9-4.7l-73.1 0.4c0 0-11 0.3-15 5.1-3.6 4.2-0.3 13-0.3 13 0 0 57.3 134 122.1 201.6 59.5 61.9 127 57.8 127 57.8h30.6c0 0 9.2-1 13.9-6.1 4.4-4.7 4.2-13.4 4.2-13.4 0 0-0.6-41.1 18.5-47.1 18.8-6 42.9 39.6 68.5 57.2 19.3 13.3 34 10.4 34 10.4l68.4-1c0 0 35.8-2.2 18.8-30.3z"/>
		</g>
	</g>
	<g id="Layer">
	</g>
	<g id="Layer">
	</g>
	<g id="Layer">
	</g>
	<g id="Layer">
	</g>
	<g id="Layer">
	</g>
	<g id="Layer">
	</g>
	<g id="Layer">
	</g>
	<g id="Layer">
	</g>
	<g id="Layer">
	</g>
	<g id="Layer">
	</g>
	<g id="Layer">
	</g>
	<g id="Layer">
	</g>
	<g id="Layer">
	</g>
	<g id="Layer">
	</g>
	<g id="Layer">
	</g>
</svg>