<svg version="1.2" xmlns="http://www.w3.org/2000/svg" viewBox="0 0 461 461" width="461" height="461">
	<title>refresh-svg</title>
	<style>
		.s0 { fill: #27300f }
	</style>
	<g id="Layer">
		<g id="Layer">
			<path id="Layer" class="s0" d="m231.3 17.1c-57.7-0.2-113.3 22.2-154.8 62.3v-62.3c0-9.5-7.6-17.1-17.1-17.1-9.4 0-17 7.6-17 17.1v102.4c0 7.3 4.7 13.8 11.6 16.2l102.4 34.1c9 3 18.7-1.9 21.6-10.8 3-9-1.8-18.7-10.8-21.6l-75.6-25.2c69.9-76 188.1-81.1 264.2-11.2 76 69.8 81.1 188.1 11.2 264.1-69.8 76.1-188.1 81.1-264.1 11.3-46.7-42.8-68.4-106.3-57.9-168.8 1.6-9.2-4.6-18.1-13.8-19.8-9.3-1.6-18.2 4.6-19.8 13.8q-0.1 0.2-0.1 0.3c-2 12.3-3.1 24.6-3.1 37 0.2 122.5 99.4 221.8 221.9 221.9 122.5 0.3 222.1-98.7 222.5-221.3 0.3-122.5-98.8-222.1-221.3-222.4z"/>
		</g>
	</g>
	<g id="Layer">
	</g>
	<g id="Layer">
	</g>
	<g id="Layer">
	</g>
	<g id="Layer">
	</g>
	<g id="Layer">
	</g>
	<g id="Layer">
	</g>
	<g id="Layer">
	</g>
	<g id="Layer">
	</g>
	<g id="Layer">
	</g>
	<g id="Layer">
	</g>
	<g id="Layer">
	</g>
	<g id="Layer">
	</g>
	<g id="Layer">
	</g>
	<g id="Layer">
	</g>
	<g id="Layer">
	</g>
</svg>
